# xmcd CD database file
#
# Track frame offsets:
#	150
#	7200
#	16086
#	25040
#	32517
#	42503
#	48435
#	56031
#	61937
#	71098
#	78686
#
# Disc length: 1180 seconds
#
# Revision: 0
# Processed by: cddbd v1.5.2PL0 Copyright (c) Steve Scherf et al.
# Submitted via: CDex 1.70beta2
#
DISCID=8e049a0b
DTITLE=Buck Owens - Remembering Buck Owens
DYEAR=2006
DGENRE=Country
TTITLE0=Yer Fer Me
TTITLE1=Right After The Dance
TTITLE2=Why Don't Mommy Stay With Daddy And Me
TTITLE3=Please Don't Take Her From Me
TTITLE4=The House Down The Block
TTITLE5=Blue Love
TTITLE6=Down On The Corner Of Love
TTITLE7=Three Dimension Love
TTITLE8=It Don't Show On Me
TTITLE9=That Ain't Right Baby
TTITLE10=Rhythm 'N Booze
EXTD=YEAR: 2006
EXTT0=
EXTT1=
EXTT2=
EXTT3=
EXTT4=
EXTT5=
EXTT6=
EXTT7=
EXTT8=
EXTT9=
EXTT10=
PLAYORDER=
